<svg xmlns="http://www.w3.org/2000/svg" width="24" height="24" viewBox="0 0 24 24" fill="none"><rect width="24" height="24" rx="12" fill="white"></rect><path d="M16.9756 7.20105H14.3145M16.9756 7.20105C16.9756 7.53698 15.9817 8.16505 15.6451 8.4008M16.9756 7.20105C16.9756 6.86512 15.9817 6.23706 15.6451 6.0013M5 7.20105H7.6611M5 7.20105C5 6.86512 5.99458 6.23706 6.33122 6.0013M5 7.20105C5 7.53698 5.99458 8.16505 6.33122 8.4008M9.54361 17.9988V17.4349C9.5437 17.0461 9.40385 16.6677 9.14497 16.3563L6.59653 13.2916C6.38455 13.0372 6.22723 12.7283 6.32389 12.4224C6.56386 11.6671 7.51245 10.9959 8.57302 12.1782L9.6396 13.2028V6.9575C9.70493 5.85973 11.7547 5.51361 11.9667 6.9575V10.5166C12.9553 10.4026 17.6102 11.0271 16.933 13.6749L16.837 14.0564C16.699 14.6071 16.293 15.5873 15.8457 16.1608C15.3798 16.7577 15.5978 17.7205 15.5444 18" stroke="black" stroke-linecap="round" stroke-linejoin="round"></path></svg>