<svg xmlns="http://www.w3.org/2000/svg" width="24" height="24" viewBox="0 0 24 24" fill="none"><rect width="24" height="24" rx="12" fill="white"></rect><path d="M10.9145 14.625C11.1945 14.925 11.5561 15.072 11.9994 15.066C12.4427 15.06 12.7694 14.888 12.9793 14.55L15.9366 9.80625C16.0416 9.63125 16.0271 9.47175 15.8932 9.32775C15.7593 9.18375 15.6104 9.16825 15.4466 9.28125L11.0195 12.45C10.7045 12.675 10.5384 13.0188 10.5211 13.4813C10.5039 13.9438 10.635 14.325 10.9145 14.625ZM11.9994 6C12.4194 6 12.8335 6.0375 13.2418 6.1125C13.6501 6.1875 14.0467 6.30625 14.4317 6.46875C14.6184 6.54375 14.8167 6.6845 15.0267 6.891C15.2366 7.0975 15.295 7.29425 15.2016 7.48125C15.1083 7.66825 14.8983 7.79325 14.5717 7.85625C14.2451 7.91925 13.9826 7.913 13.7843 7.8375C13.4926 7.725 13.1982 7.64075 12.9009 7.58475C12.6037 7.52875 12.3032 7.5005 11.9994 7.5C10.4479 7.5 9.12662 8.0845 8.03565 9.2535C6.94467 10.4225 6.39942 11.838 6.39988 13.5C6.39988 14.025 6.46708 14.5438 6.60147 15.0563C6.73586 15.5688 6.92531 16.05 7.16982 16.5H16.829C17.0973 16.025 17.2928 15.5312 17.4156 15.0187C17.5383 14.5062 17.5994 13.975 17.5989 13.425C17.5989 13.1 17.5726 12.7812 17.5199 12.4688C17.4671 12.1563 17.3885 11.85 17.284 11.55C17.214 11.3375 17.2023 11.1312 17.249 10.9312C17.2956 10.7312 17.4006 10.5625 17.564 10.425C17.7156 10.3 17.882 10.2625 18.063 10.3125C18.2441 10.3625 18.3694 10.475 18.4389 10.65C18.6139 11.0875 18.748 11.5345 18.8413 11.991C18.9347 12.4475 18.9872 12.913 18.9988 13.3875C19.0105 14.1 18.9347 14.7813 18.7714 15.4313C18.608 16.0813 18.3689 16.7 18.0539 17.2875C17.9256 17.5125 17.7506 17.6875 17.529 17.8125C17.3073 17.9375 17.074 18 16.829 18H7.16982C6.92484 18 6.69153 17.9375 6.46988 17.8125C6.24823 17.6875 6.07324 17.5125 5.94492 17.2875C5.64161 16.725 5.4083 16.1283 5.24498 15.4973C5.08166 14.8663 5 14.2005 5 13.5C5 12.4625 5.18385 11.4907 5.55155 10.5847C5.91926 9.67875 6.42088 8.885 7.05643 8.2035C7.69198 7.522 8.43555 6.9845 9.28714 6.591C10.1387 6.1975 11.0428 6.0005 11.9994 6Z" fill="black"></path></svg>